<svg xmlns="http://www.w3.org/2000/svg" width="16" height="16" viewBox="0 0 16 16">
    <path fill="#333" fill-rule="nonzero" stroke="#333" stroke-width=".5" d="M1.006 7.995c.026.142.14.251.283.271l5.636.806.805 5.635a.337.337 0 0 0 .627.118c.039-.069 3.866-6.905 5.738-10.8.158-.329.3-.602.426-.843.446-.855.715-1.37.19-1.896-.192-.193-.403-.286-.645-.286-.34 0-.683.179-1.25.475-.242.125-.516.268-.845.426-3.894 1.872-10.73 5.7-10.799 5.738a.337.337 0 0 0-.166.356zm11.257-5.486c.34-.163.618-.309.864-.437.444-.231.764-.398.939-.398.04 0 .087.007.169.088.149.15.14.245-.31 1.109-.129.245-.274.524-.437.863-1.465 3.047-4.139 7.915-5.233 9.888l-.699-4.896a.337.337 0 0 0-.286-.286l-4.895-.699c1.973-1.094 6.84-3.767 9.888-5.232z"/>
</svg>
