<svg xmlns="http://www.w3.org/2000/svg" width="67" height="64" viewBox="0 0 67 64">
    <g fill="none" fill-rule="evenodd">
        <ellipse cx="33.881" cy="59.093" fill="#F0F0F0" rx="32.184" ry="4.547"/>
        <path fill="#AA337D" stroke="#AA337D" stroke-linejoin="round" d="M12.895 14.839h1.319v42.972h-1.319z"/>
        <path fill="#CE499B" stroke="#CE499B" stroke-linejoin="round" d="M14.213 14.839h-1.318v11.674l1.318-.652z"/>
        <path fill="#CE499B" stroke="#CE499B" stroke-linejoin="round" d="M7.551 10.705a6.004 6.004 0 0 1 12.006 0v7.544c0 .53-12.006.53-12.006 0v-7.544z"/>
        <path fill="#333" d="M16.796.12s-.045 0 0 .04.04.033 0 .03c-.039-.003 0 .018-.018.027-.018.01.027.027.2.085-.206-.049-.284-.06-.167-.018.118.042.112.045 0 .02-.111-.023-.051 0 .133.07a.66.66 0 0 0-.193-.036s-.04 0 0 .04c.04.038.03.03 0 .03s-.048 0 0 .039.042.03 0 .027c-.042-.003 0 .018-.024.027-.024.009.021.027.193.084-.28-.066-.28-.054 0 .037-.302-.073-.254-.043 0 .039a1.044 1.044 0 0 0-.187-.04s-.106 0 .048.073c.018 0 0 0 0 0-.12-.021-.105 0 .082.054a.603.603 0 0 0-.17-.027.16.16 0 0 1 0 .036s.028.018.082.037c.054.018.057.02 0 0-.148-.034-.139-.019.03.039.06.02.052.02 0 0a.294.294 0 0 0-.135-.021c-.01.006.193.072.156.066a.64.64 0 0 0-.169-.027s-.042 0 0 .036c.043.036.034.033-.015.03-.048-.003.17.064.121.055a.438.438 0 0 0-.136-.019.109.109 0 0 1 0 .034l.052.027c.05.027.027 0 0 0-.118-.015-.097 0-.037.051l.085.03c.051.018.051.018 0 0-.178-.039-.187-.033-.033.024.027 0 .045.015 0 0-.175-.036-.166-.024.03.046a.71.71 0 0 0-.16-.027s.112.045.127.054c.015.009-.227.015-.236.015-.009 0 .172.066.112.054-.06-.012-.12-.02-.12 0v.024c0 .006.023.028.198.085-.283-.067-.286-.057-.024.033-.268-.06-.271-.051 0 .04a1.044 1.044 0 0 0-.184-.037c0 .018-.1 0 .048.072.016 0 .025 0 0 0-.15-.03-.1 0 .079.058a.519.519 0 0 0-.172-.03s-.045 0 0 .039c.045.04.027.03 0 .03s-.048 0 0 .036.04.033 0 .033-.057 0 0 .037c.057.036.03.03 0 .03s-.051 0 0 .036.036.033 0 .033 0 .021-.018.03c-.018.01.03.021.124.055.093.033.057.02 0 0-.188-.043-.19-.03 0 .033.06.021.048.018 0 0a.392.392 0 0 0-.133-.024s.193.075.154.066c-.04-.009-.17-.036-.166-.024.003.012-.037 0 0 .036.036.036.054.036 0 .03 0 0 .141.055.132.055-.009 0-.144-.03-.141-.021.003.009-.04 0 0 .042.039.042.033.03 0 .027-.034-.003-.055 0 0 .04.054.038.033.03 0 .03-.034 0-.058 0 0 .036.057.036.03.03 0 .03s-.049 0 0 .036c.048.036.027.033 0 .033-.028 0 0 .018 0 .03l.603.181s.045 0 0-.039c-.045-.04-.042-.033 0-.03.042.003-.15-.003-.15-.018s-.028-.03-.2-.085c.205.049.284.058.166 0-.118-.057-.112-.045 0-.018s.051 0-.136-.07a.676.676 0 0 0 .193.037s.043 0 0-.04c-.042-.038-.033-.03 0-.03.034 0 .052-.014 0-.039-.05-.024-.042-.033 0-.03.043.003 0-.018.025-.024.024-.006-.025-.027-.197-.084.281.066.284.054.015-.037.302.07.254.04 0-.039.063.017.126.03.19.04 0-.019.106 0-.048-.073-.02 0 0 0 0 0 .121.021.106 0-.081-.057.053.018.11.028.166.03v-.04a.371.371 0 0 0-.082-.036c-.045 0-.057-.02 0 0 .151.03.142.019-.027-.039-.06-.02-.054-.02 0 0a.44.44 0 0 0 .136.021s-.193-.072-.157-.066a.64.64 0 0 0 .169.027c0-.015.042-.015 0-.04-.042-.023-.03-.03.018-.026.048.003-.172-.064-.12-.055.044.012.09.018.135.019a.15.15 0 0 1 0-.037l-.051-.024c-.051-.024-.03-.015 0 0 .118 0 .096 0 .033-.051a.486.486 0 0 0-.081-.03c-.055-.018-.052-.018 0 0 .178.042.187.036.033-.021-.03 0-.045-.019 0 0 .175.036.166.027-.03-.046.05.017.103.027.157.03 0 0-.11-.045-.124-.057-.015-.012.127.027.139.021.012-.006-.172-.063-.112-.051.04.007.08.007.12 0a.024.024 0 0 1 0-.024s-.023-.03-.201-.088c.283.07.301.058.027-.033.268.064.271.054 0-.04.06.02.121.034.184.04 0-.018.1 0-.052-.072 0 0-.02 0 0 0 .151.03.1 0-.078-.055a.646.646 0 0 0 .169.03s.048 0 0-.039-.027-.03 0-.03.048 0 0-.039c-.048-.04-.036-.033 0-.03.036.003.054 0 0-.036-.054-.037-.03-.03 0-.034.03-.003.051 0 0-.033s-.033-.033 0-.033 0-.021.018-.033-.03-.021-.127-.051c-.096-.03-.054-.022 0 0 .187.045.19.033 0-.03-.06-.022-.048-.022 0 0a.29.29 0 0 0 .136.02c.01-.006-.193-.072-.157-.066a.688.688 0 0 0 .17.027s.032 0 0-.036c-.034-.036-.052-.04.014-.03 0 0 .024-.076.033-.076.01 0 .142.034.142.025 0-.01.04-.019 0-.043-.039-.024-.033-.03 0-.027.033.003.055-.015 0-.039-.054-.024-.033-.03 0-.03s.06 0 0-.036c-.06-.037-.027-.03 0-.03s.052 0 0-.037c-.051-.036-.03-.033 0-.033s.018-.021.018-.033l-.546-.2zM10.191.154s-.033.033.015.036c.049.003.052 0 0 .03-.05.03 0 .021 0 .033 0 .013.037 0 .215-.024-.202.058-.278.088-.154.067.124-.021.12-.015 0 .02-.12.037-.045.028.15 0a.74.74 0 0 0-.186.067s-.028.033.02.036c.049.003.04 0 0 .028-.038.027-.035.036 0 .039.037.003.055 0 0 .03-.054.03 0 .021 0 .033s.034 0 .212-.024c-.278.081-.272.094 0 .04-.302.084-.241.09 0 .035a1.207 1.207 0 0 0-.184.06c0 .019-.088.061.078.04.021 0 0 0 0 0-.117.045-.1.045.097 0a.953.953 0 0 0-.16.057.184.184 0 0 1 0 .04c.03.004.06.004.09 0 .049 0 .06 0 0 0-.147.045-.132.054.046.018.06 0 .054 0 0 0a.404.404 0 0 0-.13.048s.205-.033.172-.021c-.084.027-.169.054-.16.063.01.01-.033.03.021.03.055 0 .045 0 0 .034-.045.033.178-.03.13 0-.048.03-.13.045-.124.054a.06.06 0 0 1 0 .033h.058c.057 0 .033 0 0 0-.112.048-.079.06 0 .063h.084c.057 0 .057 0 0 0-.175.055-.178.064-.018.037.03 0 .048 0 0 0-.169.057-.157.06.048.024a.694.694 0 0 0-.15.054c.045.004.09.004.135 0 .018 0-.124.042-.13.054-.006.012.181-.033.124 0-.057.034-.115.043-.112.052a.033.033 0 0 1 0 .024s.034 0 .215-.027c-.278.084-.278.096 0 .042-.263.081-.26.09.015.04a1.041 1.041 0 0 0-.181.056c0 .019-.082.06.078.04.015 0 .024 0 0 0-.148.048-.087.045.097 0a.513.513 0 0 0-.163.06s-.033.033.018.036c.051.003.04 0 0 .03s-.033.037 0 .037.048 0 0 .033-.042.036 0 .036.042 0 0 .033-.04.033 0 .033.048 0 0 .037c-.048.036 0 .024 0 .036 0 .012.036 0 .136-.018s.057 0 0 0c-.184.054-.181.066 0 .03.063 0 .051 0 0 0-.052 0-.121.04-.127.048-.006.01.202-.033.166-.021a.71.71 0 0 0-.157.06s-.024.03.018.03c.042 0 .066 0 0 .034 0 0 .148-.024.142-.018-.006.006-.139.045-.136.05.003.007-.024.034.021.037.046.003.046 0 0 .03-.045.03-.039.037 0 .037.04 0 .046 0 0 .03-.045.03-.045.039 0 .039.046 0 .04 0 0 .033-.039.033-.036.033 0 .033s.043 0 0 .037c-.042.036 0 .024 0 .036h.242l.603-.151s.03-.036-.015-.036-.051 0 0-.034c.051-.033 0-.02 0-.033 0-.012-.036 0-.214.027.202-.06.274-.09.15-.069-.123.021-.117.018 0-.018.118-.036.043-.03-.15 0a.582.582 0 0 0 .184-.066s.027-.034-.018-.034c-.046 0-.042 0 0-.03s.036-.036 0-.036-.052 0 0-.03c.051-.03 0-.024 0-.036 0-.012-.036 0-.211.024.274-.082.271-.094 0-.04.286-.081.238-.09-.016-.036a1.02 1.02 0 0 0 .185-.06c0-.018.087-.06-.079-.04-.021 0 0 0 0 0 .115-.042.097-.045-.096 0a.634.634 0 0 0 .16-.057.169.169 0 0 1 0-.036h-.091c-.057 0-.057 0 0 0 .145-.048.13-.054-.045-.02-.064 0-.055 0 0 0a.332.332 0 0 0 .093-.073s-.202.033-.169.02a.67.67 0 0 0 .16-.06s.03-.033-.021-.03c-.051.003-.045 0 0-.033s-.181.03-.133 0a.495.495 0 0 0 .127-.051.148.148 0 0 1 0-.033h-.057c-.058 0-.034 0 0 0 .108-.049.078-.06 0-.06a.468.468 0 0 0-.088 0c-.054 0-.054 0 0 0 .178-.055.181-.067.021-.037-.033 0-.048 0 0 0 .17-.054.154-.06-.051-.021a.561.561 0 0 0 .15-.057s-.114.015-.132.015c-.018 0 .12-.043.13-.052.009-.009-.184.03-.124 0s.115-.042.112-.048c-.003-.006 0 0 0-.027s-.036 0-.217.027c.28-.081.277-.093 0-.042.262-.079.262-.088 0-.04a.963.963 0 0 0 .178-.057c0-.018.081-.057-.079-.039 0 0-.024 0 0 0 .145-.048.088-.045-.096 0a.703.703 0 0 0 .162-.057S11.11.79 11.057.79c-.05 0-.039 0 0-.034.04-.033.037-.033 0-.036-.036-.003-.048 0 0-.03.049-.03.043-.04 0-.036-.042.003-.042 0 0-.033.043-.034.037-.037 0-.037-.036 0-.045 0 0-.033.046-.033 0-.024 0-.036 0-.012-.036 0-.135.015-.1.015-.058 0 0 0 .184-.057.18-.07 0-.033-.064 0-.055 0 0 0a.404.404 0 0 0 .126-.048s-.202.033-.169.02a.703.703 0 0 0 .16-.063s.021-.03-.02-.03c-.043 0-.064 0 0-.033 0 0-.152.024-.146.018.006-.006.142-.045.136-.051-.006-.006.027-.036-.021-.036s-.042 0 0-.03.04-.04 0-.04-.045 0 0-.03.045-.036 0-.036-.04 0 0-.033c.04-.034.04-.037 0-.037s-.042 0 0-.033 0-.027 0-.036l-.797.154zM4.495 3.482s0 .045.03.024c.03-.021.051-.018.021.024-.03.042 0 .018 0 .03s.04 0 .172-.13c-.145.152-.193.215-.097.136.097-.078.094-.075 0 0-.093.076-.024.049.13-.081a.733.733 0 0 0-.13.15s0 .043.034.022c.033-.021.042 0 .02.021-.02.021 0 .048.031.027.03-.02.051-.02.021.021-.03.043 0 .018 0 .034 0 .015.036 0 .172-.127-.2.211-.187.217.024.03-.205.217-.163.2.03.027a1.231 1.231 0 0 0-.126.142c0 .018-.046.097.087 0-.078.093-.063.087.088-.042a.7.7 0 0 0-.109.13l.027.027s.03-.015.076-.052c.045-.036.045-.039 0 0-.103.115-.088.115.048 0 .048-.042.042-.036 0 0a.323.323 0 0 0-.085.106c0 .012.16-.13.136-.106a.774.774 0 0 0-.108.136c.009.003 0 .042.036 0s.042 0 .015.027c-.027.027.142-.114.108-.075-.033.039-.093.105-.084.108.01.006.02.013.027.022l.048-.03c.049-.03.028-.019 0 0-.072.093-.039.09.028.054l.066-.055c.042-.039.042-.036 0 0-.124.136-.12.148 0 .043.024-.021.036-.03 0 0-.118.132-.106.13.054 0a.745.745 0 0 0-.102.123s.093-.072.111-.078c.018-.006-.087.096-.087.109 0 .012.142-.118.1-.07-.043.048-.076.094-.07.097.006.003.015 0 .018.02.003.022.036 0 .172-.132-.199.214-.193.223.018.04-.19.201-.184.207.027.026a.815.815 0 0 0-.123.142s-.043.09.087 0c0 0 .018-.015 0 0-.102.115-.054.085.088-.039a.63.63 0 0 0-.112.13s0 .048.033.024.04 0 .021.024c-.018.024-.015.048.027.024.043-.024.049-.015.022.027-.028.043-.019.052.027.027.045-.024.042 0 .02.025-.02.024 0 .048.025.027.024-.021.048 0 .024.024s0 .021.018.03c.018.01.033 0 .112-.078.078-.079.042-.04 0 0-.13.141-.12.147.024.02.051-.041.042-.032 0 0a.347.347 0 0 0-.087.106c0 .01.16-.13.135-.1-.024.03-.117.128-.105.13.012.004 0 .04.03.019s.06-.028.018.027c0 0 .118-.097.115-.088-.003.01-.097.109-.09.112.005.003 0 .042.035.021.037-.021.043-.015.021.021-.02.036-.015.051.028.03.042-.02.042 0 .02.021-.02.022-.017.055.028.028.045-.028.04 0 .021.027-.018.027-.018.048.024.024.042-.024.045 0 .024.027-.02.027 0 .027.018.03.018.003 0 0 0 0l.465-.446c0-.015 0-.046-.03-.024-.03.02-.048.018-.021-.025.027-.042 0-.018-.015-.03s-.037 0-.172.13c.145-.15.193-.214.1-.136-.094.079-.097.076-.016 0 .082-.075.024-.045-.127.082.079-.082.136-.142.127-.148-.009-.006 0-.042-.033-.021-.033.02-.042 0-.021-.021.021-.022 0-.049-.03-.028-.03.022-.049.022-.021-.02.027-.043 0-.022 0-.037s-.037 0-.172.13c.199-.211.19-.217-.025-.033.209-.215.163-.196-.03-.025a1.81 1.81 0 0 0 .13-.141c0-.018.042-.097-.088 0-.018 0 0 0 0 0 .079-.094.064-.088-.087.042a.7.7 0 0 0 .109-.13l.06.003s-.03 0-.072.051c-.043.052-.046.04 0 0 .102-.111.084-.111-.052 0-.045.043-.042.037 0 0a.431.431 0 0 0 .088-.105s-.16.13-.136.102a.852.852 0 0 0 .106-.132c-.01-.003 0-.043-.034 0-.033.042-.045 0-.018-.027.027-.028-.139.114-.105.075.033-.04.09-.106.081-.109a.09.09 0 0 1-.024-.024s-.015 0-.051.033c-.036.034-.027.019 0 0 .072-.096.039-.09-.027-.054l-.067.054c-.042.04-.042.037 0 0 .124-.132.124-.144 0-.039-.024.018-.036.03 0 0 .118-.133.106-.13-.054 0a.603.603 0 0 0 .102-.124s-.093.073-.108.079c-.015.006.084-.097.087-.109.003-.012-.144.118-.102.07.042-.049.078-.094.07-.1-.01-.006 0 0 0-.018s-.037 0-.176.133c.202-.214.193-.223-.015-.042.187-.2.181-.206-.03-.028.046-.042.089-.088.127-.138 0 0 .039-.09-.088 0 0 0-.021.015 0 0 .103-.115.054-.085-.09.039a.712.712 0 0 0 .114-.133s0-.045-.033-.021c-.033.024-.042 0-.021-.024s0-.048-.03-.027c-.03.02-.045.018-.021-.024.024-.043.018-.055-.024-.028-.043.028-.043 0-.025-.024.018-.024.015-.048-.024-.027s-.045.015-.024-.024c.021-.04 0-.021-.018-.033s-.033.015-.109.081c-.075.067-.045.04 0 0 .13-.142.124-.15-.024-.02-.048.041-.042.032 0 0a.322.322 0 0 0 .085-.104c0-.009-.16.13-.133.1.027-.03.115-.127.106-.13-.01-.003 0-.039-.034-.018-.033.021-.06.027-.018-.027 0 0-.117.097-.114.088.003-.01.1-.11.09-.112-.009-.003 0-.042-.036-.021-.036.02-.042.015-.018-.021.024-.037.015-.055-.027-.03-.043.024-.046.015-.024-.022.02-.036.02-.054-.025-.03s-.042 0-.02-.024c.02-.024.014-.048-.028-.024s-.042 0-.024-.03c.018-.03 0-.024-.018-.03l-.543.41zM1.227 9.212s0 .045.04 0c.038-.045.032-.04.03 0-.004.039.018 0 .027.02.009.022.027-.002.084-.18-.048.205-.06.283-.018.166.042-.118.045-.112.021 0-.024.111 0 .051.07-.136a.688.688 0 0 0-.037.196s0 .04.04 0c.039-.04.03-.033.03 0s0 .051.039 0c.04-.051.03-.042.027 0-.003.042.018 0 .027.024.01.024.027-.024.085-.196-.067.28-.055.284.036.015-.073.302-.042.254.04 0a1.107 1.107 0 0 0-.04.19s0 .106.072-.048c0-.021 0 0 0 0-.02.12 0 .106.055-.081a.603.603 0 0 0-.028.169.16.16 0 0 1 .037 0s.018-.028.036-.082c.018-.054.021-.057 0 0-.033.151-.018.142.04-.027.02-.06.02-.054 0 0-.022.054-.028.127-.022.136.006.009.072-.193.066-.157a.64.64 0 0 0-.027.169s0 .042.036 0c.037-.042.034-.033.03.015-.002.048.064-.172.055-.12a.438.438 0 0 0-.018.135h.033l.027-.051c.027-.052 0-.03 0 0-.015.117 0 .096.051.033 0 0 .019-.045.03-.082.013-.036.019-.05 0 0-.039.178-.033.187.025.034 0-.03.015-.046 0 0-.036.175-.024.166.045-.03a.721.721 0 0 0-.027.156c.02-.04.039-.081.054-.123a.912.912 0 0 0-.021.138c.003.012.066-.172.054-.111-.012.06-.02.12 0 .12a.024.024 0 0 1 .024 0s.028-.024.085-.202c-.066.287-.057.302.033.027-.06.269-.051.272.04 0a.996.996 0 0 0-.037.185c.018 0 0 .1.073-.049 0-.015 0-.024 0 0-.03.151 0 .1.057-.078a.519.519 0 0 0-.03.169s0 .048.039 0c.04-.049.03-.027.03 0s0 .048.036 0c.037-.049.034-.036.034 0s0 .054.036 0c.036-.055.03-.03.03 0s0 .048.036 0c.036-.049.033-.033.033 0s.021 0 .03.018c.01.018.022-.03.055-.127.033-.096.02-.054 0 0-.042.187-.03.19.033 0 .021-.06.018-.048 0 0a.383.383 0 0 0-.024.133s.075-.193.066-.157c-.009.036-.036.169-.024.169.012 0 0 .036.036 0 .037-.036.037-.054.03 0 0 0 .055-.142.055-.133 0 .01-.03.145-.021.142.009-.003 0 .04.042 0s.03-.033.027 0c-.003.033 0 .054.04 0 .039-.054.03-.033.03 0s0 .06.036 0 .03-.027.03 0 0 .048.036 0 .033-.03.033 0 .018.018.03.018l.181-.603s0-.046-.039 0c-.039.045-.033.039-.03 0 .003-.04-.021 0-.027-.021-.006-.022-.03.027-.085.199.049-.206.058-.284 0-.166-.057.117-.045.111-.018 0 .027-.112 0-.052-.07.135a.688.688 0 0 0 .037-.196s0-.039-.04 0c-.038.04-.03.03-.03 0s-.014-.048-.038 0c-.025.049-.034.043-.03 0 .002-.042-.019 0-.025-.024-.006-.024-.027.021-.084.196.066-.283.054-.283-.036-.015.069-.301.039-.253-.04 0 .017-.062.03-.126.04-.19-.019 0 0-.105-.073.048 0 .019 0 0 0 0 .021-.12 0-.105-.057.082a.552.552 0 0 0 .03-.169h-.04a.371.371 0 0 0-.035.081c0 .046-.022.058 0 0 .03-.147.018-.138-.04.03-.02.06-.02.052 0 0a.44.44 0 0 0 .076.013s-.073.193-.067.157a.64.64 0 0 0 .027-.17c-.015 0-.015-.042-.039 0-.024.043-.03.034-.027-.014.003-.049-.063.171-.054.12a.573.573 0 0 0 .018-.136h-.036l-.024.052c-.025.051-.016.027 0 0 0-.118 0-.097-.052-.033a.486.486 0 0 0-.03.081c-.018.051-.018.051 0 0 .042-.178.036-.187-.021-.033 0 .03-.018.045 0 0 .036-.175.027-.166-.045.03a.625.625 0 0 0 .03-.16s-.045.112-.057.127c-.013.015.027-.13.02-.139-.005-.01-.063.172-.05.112a.365.365 0 0 0 0-.121h-.025c-.006 0-.03.024-.087.2.07-.285.057-.288-.033-.025.063-.269.054-.272-.04 0a.869.869 0 0 0 .04-.184c-.019 0 0-.1-.073.048 0 .015 0 .024 0 0 .03-.15 0-.1-.054.079a.64.64 0 0 0 .03-.172s0-.046-.04 0c-.038.045-.03.027-.03 0 0-.028 0-.049-.039 0-.039.048-.033.039-.03 0 .003-.04 0-.058-.036 0-.036.057-.03.03-.033 0-.003-.03 0-.052-.033 0-.034.05-.034.036-.034 0 0-.037-.02 0-.033-.018-.012-.019-.02.03-.051.126-.03.097-.021.055 0 0 .045-.187.033-.19-.03 0-.021.06-.021.049 0 0a.28.28 0 0 0 .02-.133c-.005-.009-.072.194-.065.154a.673.673 0 0 0 .027-.166s0-.036-.037 0c-.036.037-.039.055-.03-.015 0 0-.054.142-.057.133-.003-.009.033-.145.024-.142-.009.003-.018-.039-.042 0-.024.04-.03.033-.027 0 .003-.033-.015-.054-.04 0-.024.055-.03.033-.03 0s0-.057-.036 0c-.036.058-.03.03-.03 0s0-.048-.036 0c-.037.049-.033.027-.033 0s-.022-.018-.034-.018l-.226.453zM1.26 15.81s.033.034.036-.015c.003-.048 0-.05.03 0 .03.052.022 0 .034 0 .012 0 0-.036-.024-.214.057.202.087.275.066.154-.021-.12-.015-.12.021 0 .036.12.027.045 0-.15a.74.74 0 0 0 .067.186s.033.024.036-.02c.003-.046 0-.043.027 0 .027.041.036.032.04-.016.002-.048 0-.051.03 0s.02 0 .032 0c.013 0 0-.033-.024-.211.082.278.094.271.04 0 .084.302.09.238.036 0 .015.063.035.124.06.184.018 0 .06.087.04-.078 0-.022 0 0 0 0 .045.114.045.1 0-.097a.953.953 0 0 0 .057.16h.039a.302.302 0 0 0 0-.088c0-.048 0-.06 0 0 .045.145.054.133.018-.045 0-.063 0-.054 0 0s.04.124.048.127c.01.003-.033-.202-.02-.17.026.085.053.17.063.16.009-.008.03.031.03-.02 0-.052 0-.046.033 0 .033.045-.03-.181 0-.133.03.048.045.133.054.127h.033v-.058c0-.057 0-.033 0 0 .049.112.06.079.064 0v-.087c0-.036 0-.054 0 0 .054.178.063.18.036.021 0-.033 0-.048 0 0 .057.169.06.157.024-.051.013.053.03.104.054.154a.881.881 0 0 0 0-.136c0-.018.043.123.055.13.012.006-.033-.185 0-.124.033.06.042.114.051.111a.024.024 0 0 1 .024 0s0-.033-.027-.217c.084.28.097.28.042 0 .082.263.09.263.04 0 .013.061.032.12.057.178.018 0 .06.085.039-.078 0 0 0-.024 0 0 .048.145.045.087 0-.097.01.058.031.113.06.163 0 0 .034.033.037-.018.003-.051 0-.04.03 0s.036.036.036 0 0-.048.033 0 .036.042.036 0 0-.04.034 0c.033.04.033.036.033 0s0-.045.036 0 .024 0 .036 0c.012 0 0-.036-.018-.136s0-.057 0 0c.054.184.066.181.03 0 0-.063 0-.054 0 0 0 .055.04.121.048.127.01.006-.033-.202-.02-.166a.788.788 0 0 0 .06.157s.03.024.03-.018c0-.042 0-.067.033 0 0 0-.024-.148-.018-.142.006.006.045.139.051.136.006-.003.033.024.036-.024.003-.049 0-.043.03 0 .03.042.037.042.037 0 0-.043 0-.046.03 0 .03.045.04.045.04 0 0-.046 0-.04.032 0 .034.039.034.039.034 0 0-.04 0-.043.036 0 .036.042.024 0 .036 0 .012 0 0 0 0 0l-.157-.625s-.036-.033-.036.015 0 .051-.033 0-.021 0-.033 0c-.013 0 0 .036.027.214-.06-.202-.09-.274-.07-.153.021.12.018.12-.018 0-.036-.121-.03-.046 0 .15a.622.622 0 0 0-.066-.187s-.033-.024-.033.021c0 .046 0 .043-.03 0-.03-.042-.037-.033-.037.016 0 .048 0 .05-.03 0-.03-.052-.024 0-.036 0-.012 0 0 .033.024.21-.081-.277-.094-.27-.04 0-.08-.301-.09-.238-.035 0a.932.932 0 0 0-.06-.183c-.019 0-.061-.088-.04.078 0 .021 0 0 0 0-.042-.118-.045-.1 0 .097a.582.582 0 0 0-.06-.344h-.037v.087c0 .055 0 .06 0 0-.048-.145-.054-.133-.02.045 0 .064 0 .055 0 0 0-.054-.04-.123-.049-.126-.009-.003.033.202.021.169a.603.603 0 0 0-.06-.16s-.033-.03-.03.02c.003.052 0 .046-.034 0-.033-.044.03.182 0 .134a.495.495 0 0 0-.05-.127h-.034v.057c0 .058 0 .03 0 0-.048-.111-.06-.078-.06 0a.468.468 0 0 0 0 .088c0 .054 0 .054 0 0-.055-.175-.067-.178-.037-.018 0 .033 0 .048 0 0-.054-.17-.06-.157-.02.051a.676.676 0 0 0-.058-.154s.015.118.015.136c0 .018-.042-.124-.051-.13-.01-.006.03.184 0 .124s-.042-.115-.048-.112c-.007.003 0 0-.028 0-.027 0 0 .033.028.217-.082-.28-.094-.28-.043 0-.078-.262-.087-.262-.039 0a.963.963 0 0 0-.057-.178c-.018 0-.058-.084-.04.079 0 0 0 .024 0 0-.048-.145-.045-.088 0 .096a.703.703 0 0 0-.057-.163s-.036-.033-.036.019c0 .05 0 .039-.033 0-.033-.04-.033-.037-.036 0-.003.036 0 .048-.03 0-.03-.049-.04-.043-.037 0 .003.042 0 .039-.033 0-.033-.04-.036-.037-.036 0 0 .036 0 .045-.033 0-.034-.046-.025 0-.037 0-.012 0 0 .036.015.135.016.1 0 .058 0 0-.057-.184-.069-.18-.033 0 0 .064 0 .055 0 0 0-.054-.039-.12-.048-.126-.01-.006.033.202.021.166a.721.721 0 0 0-.075-.028s-.03-.024-.03.019c0 .042 0 .066-.034 0 0 0 .024.147.018.141-.006-.006-.045-.16-.063-.16-.018 0-.036-.024-.036.025 0 .048 0 .042-.03 0-.03-.043-.04-.04-.04 0 0 .039 0 .045-.03 0-.03-.046-.036-.046-.036 0 0 .045 0 .039-.033 0-.033-.04-.036-.04-.036 0 0 .039 0 .042-.034 0-.033-.043-.027 0-.036 0a.021.021 0 0 0 0 .015l.163.685zM4.588 21.507s.046 0 .024-.03c-.02-.03-.018-.051.025-.024.042.027.018 0 .03 0s0-.04-.13-.172c.15.145.214.193.136.096-.079-.096-.076-.093 0 0 .075.094.048.022-.082-.13.044.05.095.094.151.13 0 0 .042 0 .021-.033-.02-.033 0-.042.021-.024.022.018.049 0 .028-.027-.022-.027-.022-.051.02-.021.043.03.019 0 .034 0 .015 0 0-.036-.127-.17.211.2.217.188.03-.026.218.208.2.163.027-.03.044.047.091.09.142.13.018 0 .097.045 0-.088.094.078.088.063-.042-.09.038.042.082.08.13.11l.027-.03s-.015-.026-.051-.072c-.037-.045-.04-.045 0 0 .114.103.114.088 0-.048-.043-.048-.037-.045 0 0a.305.305 0 0 0 .105.088c.012 0-.13-.16-.105-.136.024.024.132.117.135.105.003-.012.043 0 0-.033-.042-.033 0-.042.028 0 .027.042-.115-.142-.076-.108a.537.537 0 0 0 .109.084.066.066 0 0 1 .02-.027l-.03-.048c-.03-.049-.017-.028 0 0 .094.072.091.036.055-.028a.474.474 0 0 0-.054-.066c-.04-.042-.036-.042 0 0 .136.127.148.124.042 0-.021-.024-.03-.04 0 0 .133.12.13.106 0-.054.037.04.078.075.124.105 0 0-.073-.093-.079-.111-.006-.018.097.087.109.087.012 0-.118-.142-.07-.102.049.039.094.078.097.072.003-.006 0 0 .021-.018s0-.036-.133-.172c.215.2.224.193.04-.018.202.19.208.18.027-.03.042.047.09.09.142.126 0 0 .09.043 0-.087 0 0-.016-.018 0 0 .114.103.084.054-.04-.088a.781.781 0 0 0 .163.019s.049 0 .024-.034c-.024-.033 0-.039.025-.02.024.017.048 0 .024-.028-.024-.027-.015-.048.027-.021.042.027.051.018.027-.027-.024-.045 0-.042.024-.024.024.018.048.018.027-.024-.02-.043 0-.046.024-.022.025.025.022 0 .03-.018.01-.018 0-.036-.078-.111-.078-.076-.04-.046 0 0 .142.132.148.123.021-.024-.042-.049-.033-.04 0 0a.619.619 0 0 0 .106.087c.015 0-.13-.16-.1-.136.03.024.127.115.13.106.003-.01.04 0 .018-.03-.021-.03-.027-.06.027-.018 0 0-.096-.115-.087-.115.009 0 .108.1.111.093.003-.006.043 0 .022-.036-.022-.036-.016-.045.02-.02.037.023.052 0 .03-.028-.02-.027 0-.042.022-.021.021.021.054.018.027-.027-.027-.046 0-.043.027-.021.027.02.049 0 .024-.028-.024-.027 0-.042.028-.02.027.02.027 0 .03-.019.003-.018 0 0 0 0l-.447-.464c-.015 0-.045 0-.024.033.021.033.018.048-.024.02-.042-.026-.018 0-.03 0s0 .04.13.176c-.151-.145-.215-.196-.136-.1.078.097.075.097 0 0-.076-.096-.046-.024.081.127a.77.77 0 0 0-.148-.13s-.042 0-.02.036c.02.037 0 .04-.022.022-.021-.019-.048 0-.027.03s.021.048-.021.018c-.042-.03-.021 0-.036 0-.015 0 0 .036.13.169-.212-.196-.218-.187-.034.027-.214-.208-.196-.163-.024.03a1.81 1.81 0 0 0-.142-.13c-.018 0-.096-.045 0 .088 0 .018 0 0 0 0-.093-.079-.087-.06.042.09a.582.582 0 0 0-.13-.108l-.03.048s0 .027.052.073c.051.045.04.045 0 0-.112-.103-.112-.088 0 .048.042.048.036.045 0 0a.305.305 0 0 0-.106-.088c-.012 0 .13.16.103.136-.027-.024-.13-.118-.133-.106-.003.013-.042 0 0 .034.042.033 0 .045-.027.018s.115.139.075.105c-.039-.033-.105-.09-.108-.081a.09.09 0 0 1-.024.024l.033.048c.033.049.018.027 0 0-.097-.07-.09-.036-.055.027a.344.344 0 0 0 .055.067c.039.045.036.045 0 0-.133-.127-.145-.124-.04 0 .019.024.03.036 0 0-.132-.118-.13-.106 0 .054a.5.5 0 0 0-.123-.102c-.006.006.072.093.078.108.006.015-.096-.084-.108-.087-.012-.003.117.145.07.102-.05-.042-.094-.078-.1-.072-.007.006 0 .018-.019.018-.018 0 0 .036.133.175-.214-.202-.223-.193-.042 0-.2-.187-.205-.181-.027.03a1.002 1.002 0 0 0-.14-.127s-.09-.039 0 .088c0 0 .016.021 0 0-.114-.103-.084-.054.04.087-.075-.069-.127-.117-.133-.111-.006.006-.045 0-.02.033.023.033 0 .042-.025.021-.024-.021-.048 0-.027.027s.018.049-.024.021c-.042-.027-.054-.018-.027.028.027.045 0 .042-.024.024-.025-.018-.049 0-.028.024.022.024.015.045-.024.024-.039-.021-.02 0-.033.018-.012.018.015.033.082.109.066.075.039.045 0 0-.142-.133-.151-.124-.022.024.043.048.034.039 0 0a.374.374 0 0 0-.102-.085c-.01 0 .13.157.1.133-.03-.024-.127-.115-.13-.106-.003.01-.04 0-.018.034.02.033.027.06-.028.018 0 0 .097.117.088.114-.01-.003-.109-.1-.112-.09-.003.009-.042 0-.02.036.02.036.014.042-.022.018-.036-.024-.054 0-.03.027.024.028.015.046-.021.025-.036-.022-.055-.022-.03.024.024.045 0 .042-.025.02-.024-.02-.048 0-.024.028.024.027 0 .042-.03.021s-.024 0-.03.021l.41.534zM10.318 24.775s.045 0 0-.04c-.045-.039-.04-.032 0-.03.04.004 0-.02.021-.027.021-.006-.027-.03-.199-.084.205.048.284.06.166 0-.118-.06-.112-.042 0-.018.112.024.051 0-.136-.07.064.022.13.034.196.037 0 0 .04 0 0-.04-.039-.039-.033-.03 0-.03.034 0 .052 0 0-.039-.05-.04-.042-.033 0-.027.043.006 0-.021.025-.027.024-.006-.025-.027-.197-.085.281.067.284.055.015-.036.302.07.254.042 0-.04.063.018.126.03.19.04 0-.018.106 0-.048-.072-.02 0 0 0 0 0 .121.02.106 0-.081-.058a.552.552 0 0 0 .169.03.16.16 0 0 1 0-.036s-.027-.018-.082-.039c-.054-.021-.057-.018 0 0 .151.033.142.018-.027-.04-.06-.02-.054-.02 0 0a.298.298 0 0 0 .136.022c.009-.006-.193-.073-.157-.067a.64.64 0 0 0 .169.028c0-.015.042 0 0-.04-.042-.039-.033-.03.015-.027.048.003-.172-.063-.12-.054.043.013.09.02.135.018a.15.15 0 0 1 0-.036l-.051-.024c-.051-.024-.03 0 0 0 .118 0 .096 0 .033-.052a.486.486 0 0 0-.081-.03c-.055-.018-.052-.018 0 0 .178.04.187.033.033-.024-.03 0-.045 0 0 0 .175.036.166.027-.03-.042a.721.721 0 0 0 .157.027s-.11-.045-.124-.054c-.015-.01.127.024.139.018.012-.006-.172-.064-.112-.051.06.012.12.02.12 0a.024.024 0 0 1 0-.025s-.023-.03-.201-.084c.286.066.301.054.027-.036.268.063.271.054 0-.04.06.02.121.033.184.04 0-.018.1 0-.049-.073-.015 0-.024 0 0 0 .151.033.1 0-.078-.054a.646.646 0 0 0 .169.03s.048 0 0-.04c-.048-.038-.027-.03 0-.03s.048-.014 0-.038c-.048-.025-.036-.034 0-.03.036.002.054 0 0-.037-.054-.036-.03-.03 0-.03s.048 0 0-.036-.033-.033 0-.033 0-.022.018-.03c.018-.01-.03-.025-.127-.055-.096-.03-.054-.021 0 0 .187.045.19.033 0-.03-.06-.021-.048-.018 0 0a.325.325 0 0 0 .133.021c.01-.006-.193-.072-.157-.066a.688.688 0 0 0 .17.027s.035-.015 0-.036c-.037-.022-.055-.04 0-.03 0 0-.143-.055-.134-.058.01-.003.145.033.142.024-.003-.009.04-.018 0-.042-.039-.024-.033-.03 0-.027.033.003.055 0 0-.04-.054-.039-.033-.03 0-.03s.06 0 0-.036-.027-.03 0-.03.049 0 0-.036c-.048-.036-.03-.033 0-.033s.018-.018.018-.03c0-.013 0 0 0 0l-.603-.179s-.045 0 0 .04c.045.039.04.033 0 .03-.04-.003 0 .021-.021.027-.021.006.027.03.199.085-.205-.049-.284-.06-.166-.019.118.043.112.046 0 .022-.112-.025-.051 0 .136.069a.688.688 0 0 0-.196-.036s-.04.015 0 .039c.039.024.03.03 0 .03s-.049 0 0 .04c.048.039.042.033 0 .026-.043-.006 0 .022-.025.028-.024.006.022.027.197.084-.284-.066-.284-.054-.015.036-.302-.072-.254-.042 0 .04a1.107 1.107 0 0 0-.19-.04c0 .018-.106 0 .048.073.018 0 0 0 0 0-.121-.021-.106 0 .081.057a.552.552 0 0 0-.169-.03.16.16 0 0 1 0 .036s.027.018.082.04c.054.02.057.017 0 0-.148-.034-.14-.019.03.039.06.02.051.02 0 0a.294.294 0 0 0-.136-.022c-.009.006.193.073.157.067a.64.64 0 0 0-.169-.027s-.042 0 0 .039c.042.04.033.03-.015.027-.048-.003.172.063.12.054a.438.438 0 0 0-.135-.018.109.109 0 0 1 0 .033l.051.028c.051.027.027 0 0 0-.118 0-.096 0-.033.05a.486.486 0 0 0 .081.031c.052.018.052.018 0 0-.178-.04-.187-.033-.033.024.03 0 .045.015 0 0-.175-.036-.166-.027.03.042a.71.71 0 0 0-.16-.027s.112.046.127.055c.015.009-.13-.025-.139-.018-.009.006.172.063.112.05-.06-.011-.12-.02-.12 0v.025c0 .006.023.027.198.084-.283-.066-.286-.057-.024.037-.268-.064-.271-.055 0 .039a.869.869 0 0 0-.184-.04c0 .019-.1 0 .049.073.015 0 .024 0 0 0-.151-.033-.1 0 .078.054a.519.519 0 0 0-.172-.03s-.045 0 0 .04c.045.039.027.03 0 .03s-.048 0 0 .036.04.033 0 .033-.057 0 0 .036.03.03 0 .03-.051 0 0 .037c.051.036.036.033 0 .033s0 .02-.018.03c-.018.009.03.024.127.054.096.03.054.021 0 0-.187-.045-.19-.033 0 .03.06.022.048.019 0 0a.325.325 0 0 0-.133-.02c-.01.005.193.072.154.063a.772.772 0 0 0-.166-.024s-.036 0 0 .036.054.039-.015.03c0 0 .142.054.132.057-.009.003-.144-.033-.141-.024.003.01-.04 0 0 .042.039.043.033.03 0 .027-.034-.003-.055 0 0 .04.054.039.033.03 0 .03-.034 0-.058 0 0 .036.057.036.03.03 0 .03s-.049 0 0 .036c.048.037.027.034 0 .034s-.018.018-.018.03l.618.193zM16.917 24.742s.033-.036-.015-.036-.051 0 0-.034c.051-.033 0-.02 0-.033 0-.012-.036 0-.214.027.202-.06.274-.09.153-.066-.12.024-.12 0 0-.021.121-.021.046-.027-.15 0a.905.905 0 0 0 .187-.064s.024-.033-.021-.036c-.046-.003-.043 0 0-.03.042-.03.033-.036-.016-.036-.048 0-.05 0 0-.03.052-.03 0-.021 0-.033 0-.013-.033 0-.21.024.277-.085.27-.094 0-.04.301-.084.238-.09 0-.039.062-.015.123-.034.183-.057 0-.021.088-.06-.078-.04-.021 0 0 0 0 0 .115-.042.1-.042-.097 0a.953.953 0 0 0 .16-.057.28.28 0 0 1 0-.039h-.087c-.055 0-.06 0 0 0 .145-.048.133-.054-.046-.021-.063 0-.054 0 0 0 .055 0 .124-.04.127-.048a1.6 1.6 0 0 0-.169.02c.085-.026.17-.054.16-.063-.009-.009.03-.033-.021-.03-.051.003-.045 0 0-.033s-.181.03-.133 0a.495.495 0 0 0 .127-.051.109.109 0 0 1 0-.033H16.7c-.058 0-.034 0 0 0 .111-.046.078-.058 0-.06h-.088c-.054 0-.054 0 0 0 .178-.055.181-.064.021-.037-.033 0-.048 0 0 0 .17-.054.157-.057-.051-.021a.757.757 0 0 0 .154-.054H16.6c-.018 0 .124-.04.13-.052.006-.012-.184.03-.124 0s.115-.045.112-.051a.024.024 0 0 1 0-.024s-.033 0-.217.027c.28-.084.28-.097 0-.042.262-.082.262-.09 0-.04a.963.963 0 0 0 .178-.057c0-.018.084-.06-.079-.039 0 0-.024 0 0 0 .145-.048.088-.045-.096 0 .1-.027.166-.048.162-.057-.003-.01.034-.037-.018-.037-.05 0-.039 0 0-.03.04-.03.037-.036 0-.036-.036 0-.048 0 0-.033.049-.033.043-.036 0-.036-.042 0-.039 0 0-.033.04-.034.037-.034 0-.037-.036-.003-.045 0 0-.033.046-.033 0-.024 0-.036 0-.012-.036 0-.135 0-.1 0-.058 0 0 0 .184-.054.18-.066 0-.03-.064 0-.055 0 0 0 .054 0 .12-.04.126-.049.006-.009-.202.034-.166.022a1.06 1.06 0 0 0 .157-.06s.024-.03-.018-.034c-.042-.003-.066 0 0-.033 0 0-.148.024-.142.018.006-.006.14-.045.136-.051-.003-.006.024-.034-.024-.037-.048-.003-.042 0 0-.03s.042-.036 0-.036-.045 0 0-.03.045-.04 0-.04-.04 0 0-.033.04-.033 0-.033-.042 0 0-.036 0-.024 0-.036l-.625.154s-.033.036.016.036c.048 0 .05 0 0 .033-.052.033 0 .021 0 .033s.036 0 .214-.027c-.202.06-.275.09-.154.07.12-.022.12-.019 0 .018-.12.036-.045.03.15 0a.82.82 0 0 0-.186.063s-.024.033.02.036c.046.003.043 0 0 .03-.041.03-.032.037.016.037s.051 0 0 .03 0 .02 0 .036c0 .015.033 0 .211-.027-.278.084-.271.096 0 .04-.302.084-.238.09 0 .038a1.406 1.406 0 0 0-.184.058c0 .02-.087.063.078.039.022 0 0 0 0 0-.117.042-.1.042.097 0a.582.582 0 0 0-.16.057.169.169 0 0 1 0 .036h.088c.054 0 .06 0 0 0-.145.049-.133.055.045.022.063 0 .054 0 0 0a.41.41 0 0 0-.127.048 1.6 1.6 0 0 0 .17-.021.682.682 0 0 0-.16.063s-.031.033.02.03c.052-.003.046 0 0 .033-.045.034.181-.03.133 0a.495.495 0 0 0-.127.052.109.109 0 0 1 0 .033h.058c.057 0 .03 0 0 0-.112.045-.079.06 0 .06h.087c.054 0 .054 0 0 0-.175.055-.178.064-.018.036.033 0 .048 0 0 0-.169.055-.157.058.051.022a.676.676 0 0 0-.154.057s.118-.018.136-.015c.018.003-.123.042-.13.051-.006.01.185-.03.124 0-.06.03-.114.042-.111.048.003.006 0 0 0 .025 0 .024.033 0 .217-.025-.28.082-.28.094 0 .043-.263.078-.263.087 0 .036-.061.015-.12.035-.178.06 0 0-.085.058.078.036 0 0 .024 0 0 0-.145.052-.087.049.097 0a.564.564 0 0 0-.163.058s-.033.036.018.036c.051 0 .04 0 0 .033s-.036.033 0 .033.048 0 0 .033c-.048.034-.042.037 0 .037s.04 0 0 .033-.036.036 0 .036.045 0 0 .033 0 .024 0 .037c0 .012.036 0 .136 0s.057 0 0 0c-.184.057-.181.066 0 .03.063 0 .054 0 0 0-.055 0-.12.039-.127.048-.006.009.202-.033.166-.021a1.06 1.06 0 0 0-.157.06s-.024.03.018.033c.042.003.067 0 0 .034 0 0 .148-.025.142-.019-.006.006-.139.046-.136.052.003.006-.024.036.024.036.049 0 .043 0 0 .03-.042.03-.039.036 0 .04.04.002.046 0 0 .03-.045.03-.045.036 0 .036.046 0 .04 0 0 .033-.039.033-.039.033 0 .033.04 0 .043 0 0 .036-.042.037 0 .027 0 .037h.015l.607-.136zM22.614 21.423s0-.046-.03-.024c-.03.02-.052.018-.025-.025.027-.042 0-.018 0-.03s-.039 0-.172.13c.145-.154.193-.214.097-.136-.097.079-.094.076 0 0 .093-.075.02-.045-.13.082a.77.77 0 0 0 .13-.148s0-.042-.033-.021c-.034.02-.043 0-.025-.021.019-.021 0-.049-.027-.028-.027.022-.051.022-.02-.02.03-.043 0-.022 0-.037s-.037 0-.17.13c.2-.211.187-.217-.027-.033.208-.215.163-.196-.03-.024a1.81 1.81 0 0 0 .13-.142c0-.018.045-.097-.088 0 .079-.094.064-.088-.09.042a.649.649 0 0 0 .111-.13l-.03-.027s-.027 0-.072.051c-.046.052-.046.04 0 0 .102-.111.087-.111-.049 0-.048.043-.045.037 0 0a.305.305 0 0 0 .088-.105c0-.012-.16.13-.136.102.024-.027.118-.13.106-.132-.012-.003 0-.043-.033 0-.034.042-.043 0 0-.03.042-.03-.142.117-.11.078a.537.537 0 0 0 .085-.109.072.072 0 0 1-.027-.024l-.048.033c-.048.034-.027.018 0 0 .072-.096.036-.09-.027-.054a.474.474 0 0 0-.067.054c-.042.04-.042.037 0 0 .127-.132.124-.145 0-.039-.024.018-.039.03 0 0 .121-.133.106-.13-.054 0a.824.824 0 0 0 .106-.124s-.094.073-.112.079c-.018.006.088-.097.088-.109 0-.012-.142.118-.103.07.04-.049.078-.094.072-.1a.021.021 0 0 1-.018-.018s-.036 0-.172.133c.2-.215.193-.224-.018-.043.19-.199.181-.205-.03-.027a.82.82 0 0 0 .127-.139s.042-.09-.088 0c0 0-.018 0 0 0 .103-.114.055-.084-.087.04.07-.076.117-.127.111-.133-.006-.006 0-.048-.033-.021s-.039 0-.02-.024c.017-.024 0-.049-.028-.027-.027.02-.048.018-.021-.025.027-.042.018-.054-.027-.027-.046.027-.043 0-.024-.024.018-.024.018-.048-.025-.027-.042.021-.045 0-.02-.024.023-.024 0-.021-.019-.033-.018-.012-.036 0-.111.081-.076.082-.046.04 0 0 .132-.142.123-.15-.025-.024-.048.042-.039.036 0 0a.552.552 0 0 0 .088-.103s-.16.13-.136.1c.024-.03.115-.127.106-.13-.01-.003 0-.039-.03-.018s-.06.027-.019-.027c0 0-.114.096-.114.087 0-.009.1-.108.093-.111-.006-.003 0-.042-.036-.021-.036.02-.045 0-.021-.021.024-.022 0-.055-.027-.03-.027.024-.042 0-.021-.022.02-.02.018-.057-.027-.03-.046.027-.043 0-.022-.024.022-.024 0-.048-.027-.024s-.042 0-.02-.03c.02-.03 0-.024-.019-.03l-.465.443s0 .045.034.024c.033-.021.048-.018.02.024-.026.043 0 .018 0 .03 0 .013.04 0 .176-.13-.145.152-.196.215-.1.136.097-.078.097-.075 0 0-.096.076-.024.049.127-.081a.733.733 0 0 0-.13.15s0 .043.036.022c.037-.021.04 0 .021.021-.018.021 0 .048.03.027.03-.02.049-.02.019.021-.03.043 0 .019 0 .034 0 .015.036 0 .169-.127-.196.211-.187.217.027.03-.208.217-.163.2.03.027-.047.044-.09.091-.13.142 0 .018-.045.097.088 0 .018 0 0 0 0 0-.079.094-.06.088.09-.042a.582.582 0 0 0-.108.13l.027.027s.027-.015.072-.052c.046-.036.046-.039 0 0-.102.115-.087.115.049 0 .048-.042.045-.036 0 0a.335.335 0 0 0-.088.106c0 .009.16-.127.136-.103-.024.025-.118.133-.106.136.012.003 0 .042.033 0 .034-.042.046 0 .019.027-.028.027.138-.114.105-.075-.033.04-.09.106-.081.109.009.005.017.012.024.02l.048-.03c.048-.03.027-.018 0 0-.07.094-.036.091.027.055a.344.344 0 0 0 .067-.055c.045-.039.045-.036 0 0-.127.136-.124.145 0 .043.024-.021.036-.03 0 0-.118.132-.106.13.054 0a.5.5 0 0 0-.103.123c.006.006.094-.072.109-.078.015-.006-.085.097-.088.109-.003.012.145-.118.103-.07-.042.048-.078.094-.072.097.006.003.018 0 .018.02 0 .022.036 0 .175-.132-.202.211-.193.22 0 .04-.187.201-.181.208.03.026-.045.044-.087.09-.127.14 0 0-.04.093.088 0 0 0 .02 0 0 0-.103.114-.055.084.087-.04a.66.66 0 0 0-.111.13s0 .048.033.024.042 0 .02.024c-.02.024 0 .048.028.024.027-.024.048-.015.021.027-.027.043-.018.052.027.028.046-.025.043 0 .024.024-.018.024 0 .048.025.027.024-.021.045 0 .024.024-.021.024 0 .021.018.03.018.01.033 0 .108-.078.076-.079.046-.04 0 0-.132.141-.123.148.025.02.048-.041.039-.032 0 0a.373.373 0 0 0-.085.106c0 .01.157-.13.133-.1-.024.031-.115.128-.106.13.01.004 0 .04.033.019.034-.021.06-.027.019.027 0 0 .117-.094.114-.085-.003.01-.1.109-.09.112.009.003 0 .042.036.021s.042-.015.018.021c-.024.036 0 .052.027.03.027-.02.045-.015.024.022-.02.036-.02.054.024.027.046-.027.043 0 .022.027-.022.027 0 .048.027.024s.042 0 .02.027c-.02.027 0 .027.022.03l.462-.45zM25.881 15.69s0-.045-.039 0c-.04.045-.033.04-.03 0 .003-.04-.021 0-.027-.018-.006-.018-.03.027-.085.199.049-.205.06-.284 0-.166-.06.118-.042.112-.018 0 .024-.112 0-.051-.07.133a.66.66 0 0 0 .037-.193s0-.04-.04 0c-.039.039-.03.03-.03 0s0-.049-.039 0c-.039.048-.033.042-.027 0 .006-.043-.021 0-.027-.025-.006-.024-.027.022-.084.194.066-.281.054-.281-.037 0 .07-.302.043-.254-.039 0 .017-.062.03-.124.04-.187-.019 0 0-.106-.073.048 0 .018 0 0 0 0 .021-.12 0-.106-.057.081a.552.552 0 0 0 .03-.169h-.036s-.019.027-.04.082c-.02.054-.018.057 0 0 .034-.148.018-.139-.039.03-.021.06-.021.051 0 0s.027-.127.021-.136c-.006-.009-.072.193-.066.157a.64.64 0 0 0 .027-.169c-.015 0 0-.042-.04 0-.038.042-.03.033-.026-.015.003-.048-.064.169-.055.12a.438.438 0 0 0 .018-.135h-.036l-.024.051c-.024.052 0 .027 0 0 0-.117 0-.096-.051-.036a.736.736 0 0 0-.03.084c-.019.052-.019.052 0 0 .039-.178.033-.187-.025-.033 0 .027 0 .046 0 0 .037-.175.028-.166-.042.03a.71.71 0 0 0 .027-.16.884.884 0 0 0-.054.127s.024-.13.018-.139c-.006-.009-.063.172-.051.112.012-.06.021-.12 0-.12h-.024c-.006 0-.03.024-.085.199.067-.284.055-.287-.036-.025.063-.268.054-.271-.04 0a.905.905 0 0 0 .04-.184c-.018 0 0-.1-.072.049 0 .015 0 .024 0 0 .033-.151 0-.1-.055.078a.64.64 0 0 0 .03-.172s0-.045-.039 0-.03.027-.03 0-.015-.048-.04 0c-.023.048-.032.04-.03 0 .004-.04 0-.057-.036 0s-.03.03-.03 0 0-.051-.036 0-.033.036-.033 0-.021 0-.03-.018c-.01-.018-.024.03-.055.124-.03.093-.02.057 0 0 .046-.187.034-.19-.03 0-.02.06-.018.048 0 0a.325.325 0 0 0 .021-.133c-.006-.01-.072.193-.066.154a.673.673 0 0 0 .027-.166s-.015-.036-.036 0c-.021.036-.04.054-.03 0 0 0-.055.142-.058.133-.003-.01.034-.145.025-.142-.01.003-.019-.04-.043 0-.024.04-.03.033-.027 0 .003-.033 0-.054-.039 0-.04.054-.03.033-.03 0s0-.057-.036 0c-.037.057-.03.03-.03 0s0-.048-.037 0c-.036.048-.033.027-.033 0s-.018 0-.03 0l-.178.603s0 .046.039 0c.04-.045.033-.042.03 0-.003.043.021 0 .027.021.006.022.03-.027.085-.199-.048.205-.06.284-.018.166.042-.117.045-.111.02 0-.023.112 0 .052.07-.136a.676.676 0 0 0-.036.194s.015.042.04 0c.023-.043.03-.034.03 0 0 .033 0 .05.039 0 .039-.052.033-.043.027 0-.006.042.021 0 .027.024.006.024.027-.024.084-.196-.066.28-.054.283.037.015-.073.301-.043.253.039 0a1.107 1.107 0 0 0-.04.19c.019 0 0 .105.073-.049 0-.02 0 0 0 0-.021.121 0 .106.057-.081a.552.552 0 0 0-.03.166h.036s.019-.027.04-.082c.02-.054.018-.057 0 0-.034.151-.018.142.039-.027.021-.06.021-.054 0 0a.298.298 0 0 0-.021.136c.006.01.072-.193.066-.157a.64.64 0 0 0-.027.17s0 .041.04 0c.038-.043.03-.031.026.017-.003.049.064-.172.055-.12a.438.438 0 0 0-.018.135h.033l.027-.05c.027-.052 0-.031 0 0 0 .117 0 .096.051.032a.486.486 0 0 0 .03-.081c.019-.055.019-.051 0 0-.039.178-.033.187.025.033 0-.03.015-.045 0 0-.037.175-.028.166.042-.03a.721.721 0 0 0-.027.157c.02-.04.039-.082.054-.124a.676.676 0 0 0-.018.139c.006.012.063-.172.051-.112-.012.06-.021.12 0 .12a.024.024 0 0 1 .024 0s.027-.023.085-.201c-.067.283-.058.301.036.027-.063.268-.054.271.04 0a.869.869 0 0 0-.04.184c.018 0 0 .1.072-.051 0 0 0-.021 0 0-.033.15 0 .1.055-.079a.519.519 0 0 0-.03.17s0 .047.039 0c.039-.05.03-.028.03 0 0 .026 0 .047.036 0 .036-.05.033-.037.033 0 0 .035 0 .053.037 0 .036-.055.03-.031.03 0 0 .03 0 .05.036 0 .036-.052.033-.034.033 0 0 .032.021 0 .03.017.01.018.024-.03.055-.126.03-.097.02-.055 0 0-.046.187-.034.19.03 0 .02-.06.018-.049 0 0a.338.338 0 0 0-.021.135c.006.01.072-.193.063-.157a.79.79 0 0 0-.024.17s0 .033.036 0c.036-.034.04-.052.03.014 0 0 .055-.141.058-.132.003.009-.034.142-.025.142.01 0 0 .039.043 0 .042-.04.03-.034.027 0-.003.033 0 .054.039 0 .04-.055.03-.034.03 0 0 .033 0 .06.036 0 .037-.06.03-.028.03 0 0 .027 0 .05.037 0 .036-.052.033-.03.033 0s.018.018.03.018l.193-.65zM25.848 9.085s-.036-.033-.036.015 0 .051-.033 0-.021 0-.033 0c-.013 0 0 .036.027.214-.06-.202-.09-.277-.067-.154.024.124 0 .121-.02 0-.022-.12-.028-.045 0 .151a.82.82 0 0 0-.064-.187s-.033-.027-.036.021c-.003.049 0 .04-.03 0-.03-.039-.037-.036-.037 0 0 .037 0 .055-.03 0-.03-.054-.021 0-.033 0s0 .034.024.212c-.085-.278-.094-.272-.04 0-.084-.302-.09-.242-.038 0a1.406 1.406 0 0 0-.058-.184c-.02 0-.06-.088-.039.078 0 .021 0 0 0 0-.042-.118-.042-.1 0 .097a.953.953 0 0 0-.057-.16h-.04v.09c0 .057 0 .06 0 0-.048-.148-.054-.133-.02.045 0 .06 0 .055 0 0a.404.404 0 0 0-.049-.13c.004.058.01.116.021.173-.027-.085-.054-.17-.063-.16-.01.009-.033-.033-.03.02.003.055 0 .046-.034 0-.033-.044.03.179 0 .13a.507.507 0 0 0-.05-.123.06.06 0 0 1-.034 0v.057c0 .058 0 .033 0 0-.045-.111-.057-.078-.06 0v.085c0 .033 0 .057 0 0-.055-.175-.064-.178-.037-.018 0 .03 0 .048 0 0-.054-.17-.057-.157-.02.048a.941.941 0 0 0-.055-.151v.136c0 .018-.04-.124-.051-.13-.012-.006.03.181 0 .124-.03-.058-.046-.115-.052-.112-.006.003 0 0-.024 0s0 .033.027.214c-.084-.277-.096-.277-.042 0-.081-.262-.09-.26-.04.015a1.041 1.041 0 0 0-.056-.18c-.019 0-.06-.082-.04.078 0 .015 0 .024 0 0-.048-.148-.045-.088 0 .096-.027-.1-.048-.166-.057-.163-.009.003-.036-.033-.036.019 0 .05 0 .039-.03 0-.03-.04-.037-.034-.037 0 0 .033 0 .048-.033 0-.033-.049-.036-.043-.036 0 0 .042 0 .042-.033 0-.033-.043-.033-.04-.036 0-.003.039 0 .048-.034 0-.033-.049-.024 0-.036 0-.012 0 0 .036 0 .135 0 .1 0 .058 0 0-.054-.184-.066-.18-.03 0 0 .064 0 .052 0 0 0-.05-.04-.12-.048-.126-.01-.006.033.202.02.166a.923.923 0 0 0-.06-.157s-.03-.024-.033.018c-.003.042 0 .066-.033 0 0 0 .024.148.018.142-.006-.006-.045-.14-.051-.136-.006.003-.033-.024-.036.02-.003.046 0 .046-.03 0-.03-.044-.037-.038-.037 0 0 .04 0 .046-.03 0-.03-.044-.039-.044-.039 0 0 .046 0 .04-.033 0-.033-.038-.033-.035-.033 0 0 .037 0 .043-.037 0-.036-.041-.024 0-.036 0v.242l.154.604s.036.03.036-.015c0-.046 0-.052.034 0 .033.051.02 0 .033 0 .012 0 0-.037-.027-.215.06.203.09.275.069.151-.021-.123-.018-.117.018 0 .036.118.03.043 0-.15a.76.76 0 0 0 .063.184s.034.027.037-.019c.003-.045 0-.042.03 0 .03.043.036.037.036 0 0-.036 0-.05.03 0 .03.052.021 0 .036 0 .015 0 0-.036-.027-.21.085.274.097.27.04 0 .084.286.09.238.039-.016a1.6 1.6 0 0 0 .057.184c.021 0 .063.088.04-.078 0-.021 0 0 0 0 .041.114.041.096 0-.097.011.056.03.11.057.16h.036v-.09c0-.058 0-.058 0 0 .048.144.054.13.02-.046 0-.063 0-.054 0 0 .011.044.028.087.05.127a1.6 1.6 0 0 0-.022-.169c.015.056.036.11.063.16 0 0 .034.03.03-.021-.002-.051 0-.045.034 0 .033.045-.03-.181 0-.133a.495.495 0 0 0 .051.127h.033v-.058c0-.057 0-.033 0 0 .046.11.06.079.06 0a.576.576 0 0 0 0-.087c0-.054 0-.054 0 0 .055.178.064.181.037.021 0-.033 0-.048 0 0 .054.17.057.154.02-.051a.561.561 0 0 0 .058.15s-.018-.114-.015-.132c.003-.018.042.12.051.13.01.009-.03-.184 0-.124s.043.115.049.112c.006-.003 0 0 .024 0s0-.037-.024-.218c.081.281.093.278.042 0 .078.263.087.263.036 0 .015.061.035.12.06.178 0 0 .058.082.037-.078 0 0 0-.024 0 0 .051.145.048.087 0-.097.01.057.03.112.057.163 0 0 .036.033.036-.018 0-.051 0-.039.033 0 .034.04.034.036.034 0s0-.048.033 0 .036.042.036 0 0-.042.033 0 .036.036.036 0 0-.045.034 0c.033.045.024 0 .036 0 .012 0 0-.036 0-.136s0-.057 0 0c.057.184.066.181.03 0 0-.063 0-.054 0 0a.404.404 0 0 0 .048.127s-.033-.202-.02-.169c.015.055.035.109.06.16 0 0 .03.021.033-.021.003-.042 0-.063.033 0 0 0-.024-.15-.018-.145.006.006.045.142.051.136.006-.006.036.027.036-.021s0-.042.03 0 .037.039.04 0c.003-.04 0-.045.03 0s.036.045.036 0 0-.04.033 0c.033.039.033.039.033 0 0-.04 0-.042.037 0 .036.042.027 0 .036 0 .009 0 0 0 0 0l-.136-.83zM22.53 3.388s-.046 0-.025.03c.021.03.018.052-.024.022-.042-.03-.018 0-.03 0s0 .039.13.172c-.155-.145-.215-.193-.136-.097.078.097.075.094 0 0-.076-.093-.046-.024.081.13a.77.77 0 0 0-.148-.13s-.042 0-.02.033c.02.034 0 .043-.022.021-.021-.02-.048 0-.027.03.02.03.02.052-.021.022-.043-.03-.021 0-.037 0-.015 0 0 .036.13.172-.211-.2-.217-.187-.033.024-.214-.205-.196-.163-.024.03-.063-.057-.139-.13-.142-.127-.003.003-.096-.045 0 .088-.093-.079-.087-.064.042.087a.7.7 0 0 0-.13-.108l-.027.027s0 .03.052.075c.051.046.039.046 0 0-.112-.102-.112-.087 0 .049.042.048.036.042 0 0a.323.323 0 0 0-.106-.085c-.012 0 .13.16.103.136-.027-.024-.13-.118-.133-.109-.003.01-.042 0 0 .036.042.037 0 .043-.03.016-.03-.028.117.141.078.108-.039-.033-.105-.093-.108-.084a.103.103 0 0 1-.025.027l.034.048c.033.048.018.027 0 0-.097-.072-.09-.04-.055.027l.055.067c.039.042.036.042 0 0-.133-.124-.145-.121-.04 0 .019.024.03.036 0 0-.132-.118-.13-.106 0 .054a.905.905 0 0 0-.123-.103s.072.094.078.112c.006.018-.096-.088-.108-.088-.013 0 .117.142.069.1-.048-.042-.094-.075-.1-.07a.063.063 0 0 1-.084.094s0 .036.133.172c-.215-.199-.224-.193-.043.018-.199-.19-.205-.184-.027.027a.74.74 0 0 0-.139-.123s-.09-.043 0 .087c0 0 0 .018 0 0-.114-.102-.084-.054.04.088-.076-.073-.127-.118-.133-.112-.006.006-.048 0-.021.033s0 .04-.024.021c-.024-.018-.049-.015-.027.028.02.042.018.048-.025.02-.042-.026-.054-.017-.027.028s0 .042-.024.021-.048 0-.027.024 0 .048-.024.024-.021 0-.033.018 0 .034.081.112c.082.078.04.042 0 0-.142-.13-.15-.12-.024.024.042.051.036.042 0 0a.39.39 0 0 0-.103-.087c-.009 0 .13.16.1.135-.03-.024-.127-.117-.13-.105-.003.012-.04 0-.018.03.021.03.027.06-.027.018 0 0 .096.118.087.115-.009-.003-.108-.097-.111-.09-.003.005-.042 0-.021.035.02.037 0 .043-.021.022-.022-.022-.055-.016-.03.027.023.042 0 .042-.022.02-.02-.02-.057-.017-.03.028.027.045 0 .04-.024.021-.024-.018-.048-.018-.024.024.024.042 0 .045-.03.024-.03-.02-.025 0-.03.018l.443.465s.045 0 .024-.03c-.021-.03-.018-.048.024-.021.042.027.018 0 .03-.015s0-.036-.13-.172c.152.145.215.193.136.1-.078-.094-.075-.097 0-.016.076.082.049.024-.081-.126.081.078.145.135.15.126.007-.009.043 0 .022-.033-.021-.033 0-.042.021-.021s.048 0 .027-.03c-.02-.03-.02-.049.021-.021.043.027.018 0 .034 0 .015 0 0-.037-.127-.172.211.199.217.19.03-.024.217.208.2.162.027-.03.044.047.091.09.142.13.018 0 .097.041 0-.088 0-.019 0 0 0 0 .094.078.087.063-.042-.088a.7.7 0 0 0 .13.109l.027-.027s-.015-.03-.052-.073c-.036-.042-.039-.045 0 0 .115.103.115.085 0-.051-.042-.045-.036-.042 0 0a.619.619 0 0 0 .106.087s-.127-.16-.103-.135a.729.729 0 0 0 .136.105c.003-.009.042 0 0-.033s0-.045.027-.018-.114-.139-.075-.106c.04.033.105.09.108.082a.081.081 0 0 1 .022-.024s0-.015-.03-.052c-.03-.036-.019-.027 0 0 .093.073.09.04.054-.027l-.055-.066c-.039-.042-.036-.042 0 0 .136.123.145.123.043 0-.021-.024-.03-.036 0 0 .132.117.13.105 0-.055.036.04.078.075.123.103 0 0-.072-.093-.078-.109-.006-.015.096.085.109.088.012.003-.118-.145-.07-.103.048.043.094.079.097.07.003-.01 0 0 .02 0 .022 0 0-.036-.132-.175.211.202.22.193.04-.015.201.187.207.18.026-.03.044.044.09.087.14.126 0 0 .093.04 0-.087 0 0 0-.021 0 0 .114.102.084.054-.04-.09a.763.763 0 0 0 .13.114s.048 0 .024-.033c-.024-.034 0-.043.024-.021.024.02.048 0 .024-.03s-.015-.046.027-.022c.043.024.052.018.027-.024-.024-.042 0-.042.025-.024.024.018.048.015.027-.024-.021-.04 0-.045.024-.024.024.02.021 0 .03-.018.01-.019 0-.034-.078-.109-.079-.075-.04-.045 0 0 .141.13.147.124.02-.024-.041-.048-.032-.042 0 0a.323.323 0 0 0 .106.084c.01 0-.13-.16-.102-.132.04.04.085.075.133.105 0 0 .039 0 .018-.033s-.028-.06.027-.018c0 0-.094-.118-.085-.115.01.003.109.1.112.09.003-.008.042 0 .021-.035-.021-.037-.015-.043.021-.019.036.025.051.015.03-.027-.02-.042-.015-.045.021-.024.037.021.055.021.028-.024-.028-.045 0-.042.027-.021s.048.015.024-.027c-.024-.043 0-.043.027-.024.027.018.027 0 .03-.019.003-.018 0 0 0 0l-.383-.53z"/>
        <path fill="#00BFB3" stroke="#00BFB3" stroke-linejoin="round" d="M59.565 41.236v7.378c0 1.154-.19 2.3-.567 3.39l-.338 1H8.736l-.187-.516a10.422 10.422 0 0 1-.71-3.775v-2.915a4.556 4.556 0 0 1 4.545-4.562h47.181z"/>
        <path fill="#11B7A6" stroke="#11B7A6" stroke-linejoin="round" d="M53.205 41.236c-4.571 4.792-10.138 8.54-16.061 11.75H58.66l.338-.984c.376-1.09.568-2.235.567-3.388v-7.378h-6.36z"/>
        <path fill="#94B5FF" stroke="#94B5FF" stroke-linejoin="round" d="M32.588 31.204h26.977v10.032H29.091v-6.532a3.5 3.5 0 0 1 3.497-3.5z"/>
        <path fill="#333" stroke="#333" stroke-linejoin="round" d="M59.565 53.004v3.101H7.831v-1.949c0-.636.516-1.152 1.152-1.152h50.582z"/>
        <path fill="#333" stroke="#333" stroke-linejoin="round" d="M52.65 56.096h5.003v2.314H52.65zM28.813 56.096h5.003v2.314h-5.003zM10.205 56.096h5.003v2.314h-5.003z"/>
        <path stroke="#333" stroke-linecap="round" stroke-linejoin="round" stroke-width=".5" d="M18.038 41.236l41.527.157v7.7c.005.079.005.157 0 .236-.051.516-.301 2.537-.905 3.657"/>
        <path stroke="#333" stroke-linecap="round" stroke-linejoin="round" stroke-width=".5" d="M43.082 31.204h16.483v10.198"/>
        <path fill="#FEFEFF" stroke="#FEFEFF" stroke-linejoin="round" d="M33.592 35.621h8.497c.637 0 1.153.516 1.153 1.153v2.715c0 .637-.516 1.153-1.153 1.153H32.47a1.153 1.153 0 0 1-1.153-1.153V37.89a2.266 2.266 0 0 1 2.275-2.269zM47.086 35.621h8.496c.637 0 1.153.516 1.153 1.153v2.715c0 .637-.516 1.153-1.153 1.153h-9.619a1.153 1.153 0 0 1-1.152-1.153V37.89a2.266 2.266 0 0 1 2.275-2.269z"/>
        <path fill="#17787A" d="M10.226 43.909c.247-.81.41-1.643.482-2.487a1.451 1.451 0 0 0-.093-.811.543.543 0 0 0-.691-.275c-.1.054-.178.148-.287.163-.26.033-.323-.35-.277-.603l.35-1.98a2.492 2.492 0 0 0-.025-1.427c-.193-.443-.778-.748-1.176-.477-.347.239-.531.836-.939.74-.301-.073-.356-.486-.338-.8.055-.833.118-1.705-.226-2.465a1.207 1.207 0 0 0-.513-.604.603.603 0 0 0-.73.127c-.112.151-.13.362-.269.486a.48.48 0 0 1-.603-.042 1.542 1.542 0 0 1-.365-.556 2.151 2.151 0 0 0-.905-1.107c-.444-.205-1.093 0-1.183.468-.06.323.112.742-.154.935-.265.193-.667-.163-1.029-.193a.715.715 0 0 0-.685.782c.058.395.276.748.604.977.301.248.657.44.944.71a.302.302 0 0 1 .13.226c0 .214-.302.232-.513.265-.604.097-.905.905-.658 1.478.248.574.806.933 1.373 1.19.567.256 1.17.455 1.635.868a.302.302 0 0 1 .112.157c.054.254-.356.245-.603.284-.456.066-.634.706-.399 1.101.279.375.708.609 1.174.64.46.026.915.096 1.36.211.075.018.14.06.188.12.163.24-.248.43-.486.604-.401.275-.377.905-.063 1.289.347.348.807.562 1.297.603.485.039.963.14 1.421.302.387.172 1.325 1.557 1.533 1.532.208-.024.489-2.054.607-2.431z"/>
        <path stroke="#00BFB3" stroke-linecap="round" stroke-width=".4" d="M3.355 34.935S10.561 40.49 9.957 50.9M4.05 33.92c.22.626.311 1.291.269 1.955M5.882 35.805c.29.784.382 1.628.268 2.456M8.57 39.564a5.413 5.413 0 0 1-.36 1.789M9.396 42.343c.004.453-.108.9-.326 1.297M3.021 36.206c.557.567 1.35.834 2.137.719M5.308 38.946a1.88 1.88 0 0 0 1.51.573M7.543 42.282c.335.367.786.607 1.277.68M8.635 44.437c.224.196.483.346.764.443"/>
        <path fill="#05BF6F" stroke="#05BF6F" stroke-width=".22" d="M11.52 46.998c.11-1.894.429-3.77.953-5.594.248-.9.624-1.76 1.117-2.552.57-.857 1.349-1.551 1.982-2.36a6.306 6.306 0 0 0 1.33-2.918c.097-.657.064-1.336.254-1.976.19-.64.622-1.228.905-1.853.284-.624.435-1.397.073-1.982-.438-.706-1.454-.848-2.22-.54-.767.308-1.34.938-1.89 1.572l-.926 1.047c-.136.154-.275.302-.398.477a8.448 8.448 0 0 0-1.05 1.892c-.423.95-.302 1.912-.715 2.812-.166.359-.525.805-.634 1.104-.081.214-.16.428-.223.646a6.744 6.744 0 0 0-.202 2.112c.078 2.024 1.119 6.282 1.626 8.125l.018-.012z"/>
        <path stroke="#333" stroke-linecap="round" stroke-width=".45" d="M11.858 52.046s-1.901-14.39 3.177-20.686M14 32.817l-.123-.905M13.668 33.704c.275-.078.535-.198.773-.356M12.875 35.58a.956.956 0 0 0 .555-.21M12.431 37.14l.51-.186M12.178 38.363l.377-.223M12.839 34.48l.256.38M11.982 37.274l.28.407M11.677 39.135c.049.172.155.322.302.426"/>
        <path fill="#11B7A6" d="M12.902 48.293s1.04-2.067 2.447-2.242c1.406-.175 4.972-2.83 5.06-6.593 0 0 2.028-3.268.443-4.997-1.584-1.728-4.544-1.004-3.475 3.32a7.042 7.042 0 0 0-2.064 3.095c-.73 2.082-.79 3.13-1.449 4.052-.657.924-.962 3.365-.962 3.365z"/>
        <path stroke="#058491" stroke-width=".37" d="M12.974 52.526s-1.207-4.381 1.648-7.881c2.323-2.83 4.827-6.122 4.209-8.19"/>
        <path stroke="#058491" stroke-linecap="round" stroke-width=".37" d="M19.582 36.495c-.162.417-.389.806-.673 1.153M19.914 38.23a3.292 3.292 0 0 1-1.762 1.445M18.768 40.418c-.24.28-.505.537-.791.769-.29.232-.639.377-1.008.416M18.064 37.762c.047.403.177.792.384 1.14M17.199 39.675c-.05.43.003.865.153 1.27M16.2 41.498a4.64 4.64 0 0 0-.103 1.225M15.388 42.72a2 2 0 0 0 .036.887M14.685 43.987l-.033.57M14.287 45.122l.724-.302M15.065 44.132a2.01 2.01 0 0 0 1.307-.377M15.823 43.181a4.897 4.897 0 0 0 1.61-.301M16.447 42.306a1.56 1.56 0 0 0 .667-.199"/>
        <path fill="#F9CF1E" stroke="#F9CF1E" stroke-linejoin="round" stroke-width="2" d="M14.42 49.358H9.592s-3.521.302-3.32 4.526c.203 4.224 3.118 4.628 3.118 4.628h5.232s2.917-.404 3.12-4.628c.202-4.224-3.322-4.526-3.322-4.526z"/>
        <path fill="#EFC40F" stroke="#EFC40F" stroke-linejoin="round" stroke-width="2" d="M16.293 50.133c-.377 4.393-4.133 7.242-8.282 7.724.403.327.88.551 1.388.655h5.232s2.918-.404 3.12-4.628c.081-2.007-.661-3.126-1.458-3.75z"/>
    </g>
</svg>
