<svg xmlns="http://www.w3.org/2000/svg" xmlns:xlink="http://www.w3.org/1999/xlink" width="82" height="56" viewBox="0 0 82 56">
    <defs>
        <path id="a" d="M0 0h82v56H0z"/>
    </defs>
    <g fill="none" fill-rule="evenodd">
        <mask id="b" fill="#fff">
            <use xlink:href="#a"/>
        </mask>
        <use fill="#FFF" xlink:href="#a"/>
        <g mask="url(#b)" opacity=".4">
            <path fill="#191819" d="M1.5 10.388h79v34.2h-79z"/>
            <path fill="#FFF" d="M33.58 21.044c-1.738-3.406-6.147-5.271-12.464-5.271-7.561 0-12.154 2.6-12.154 6.924 0 2.728 2.134 4.551 6.628 5.724l1.964.509 1.908.509 1.964.508c.085.029.227.057.354.127.706.283 1.116.693 1.116 1.145 0 .919-1.328 1.555-3.293 1.555-3.165 0-4.762-.636-5.653-2.219l-8.535 1.173c2.176 3.943 6.811 5.907 14.019 5.907 7.66 0 12.945-3.024 12.945-7.405 0-2.417-2.403-4.706-6.049-5.596l-1.696-.41-1.695-.438-1.696-.41a23.26 23.26 0 0 1-1.329-.382c-.975-.282-1.427-.664-1.427-1.201 0-.862 1.116-1.4 2.855-1.4 2.36 0 4.056.736 4.578 2.064l7.66-1.413zm21.58 1.993h-7.589l-1.668 7.08c-.565 2.374-1.71 3.575-3.42 3.575-.89 0-1.384-.381-1.384-1.074 0-.226 0-.41.24-1.399l1.95-8.182h-7.716l-2.078 8.945c-.24 1.074-.41 1.979-.41 2.445 0 1.852 2.36 3.307 5.37 3.307 3.053 0 4.919-.848 6.784-3.052l-.65 2.67h7.236l3.335-14.315zm1.64 0l-3.378 14.316h7.433l2.035-8.593c.368-1.512 1.343-2.29 2.841-2.29 1.215 0 1.865.382 1.865 1.131 0 .198-.084.665-.197 1.16l-1.993 8.592h7.603l2.275-9.78a6.281 6.281 0 0 0 .198-1.456c0-2.091-2.317-3.518-5.723-3.518-3.124 0-5.399.96-6.544 2.755l.566-2.317h-6.982zm-13.37-5.342h1.442l.24-1.074h-4.706l-.254 1.074h1.399l-.848 3.603h1.894l.833-3.603zm5.258 1.738l-.439 1.865h1.88l1.088-4.65h-1.894l-.395 1.71h-1.696l.396-1.71h-1.88l-1.088 4.65h1.88l.438-1.865h1.71zm7.193.805H52.97l.197-.82h2.346l.24-1.017h-2.345l.17-.735h2.797l.24-1.017h-4.663l-1.088 4.65h4.762l.255-1.06z"/>
        </g>
    </g>
</svg>
